<svg id="logoSigur" xmlns="http://www.w3.org/2000/svg" viewBox="0 0 78.013 42.523">
<path  d="M28.331.432l-.6.034H25.411L25.089.432H23.853L23.146.406,22.334.383H21.039L20.805.4l-.54,0h-.577l-.365,0L18.838.41h-.172l-.1,0L18.111.392l-.723,0H16.9l-.157.011L16.333.4,16.216.41,16.1.388,15.72.377,15.534.4,15.011.41h-.062L14.212.385,14,.377,13.942.4l-.088,0h-.047l-.1.087v.756l.037.5,0,.073-.008.072.016.066-.022.081,0,.08.029.051.011.077-.007.062-.007.051,0,.15,0,.113,0,.172-.018.138,0,.6-.022.617-.029.905-.025.467v.661l-.019.347,0,.814-.022.289.022,1.719v.227l.028.31.006.656.01.1.007.085.007.757.01.691v.19l.005.8-.005.063,0,.071.01.477-.012.1-.005.9,0,.1-.008.129v.054l.015.4.022.124-.012.19-.017.322V16.2l.012.2.007.078.007.071.013.111-.022.086,0,.263.02.14v.806l-.022.1.007.1.015.082v.134l-.013.076v.041l0,.051v.022l-.01.07-.005.044-.007.258.019.132-.036,1.076,0,.063.005.058.042.2-.017.472,0,.071,0,.1.02.1v.368l-.044.2.034.263-.022.114.012.081.007.292.013.065v.4l-.013.063.013.333v.219l-.02.168,0,.1,0,.053L13.7,24v.07l.025.285v.229l.019.024-.019.095v.541l.019.116,0,.726,0,.2,0,.815.037.081-.007.109-.017.11-.034.043.012.071-.025.029-.044.095-.01.042h-.075l-.231-.029-.061.029h-.326l-.136.019h-.917l-.184-.019H11.66l-.2.019h-.051l-.109-.019h-.187l-.764.016h-.1l-.142-.016-.1-.018-.448,0-.207.015H8.576L8.4,27.658l-.15.015h-.4l-.044.019-.058-.019h-.2l-.112.016-.3-.016H7.058l-.238-.015-.115.015H5.312l-.207.019-.3,0-.061-.016H4.656l-.672.053L3.811,27.7l-.819-.029H2.669l-.295-.015-.16-.014H2.092l-.037.007-.911.022-.095-.015-.55.015H.3L.058,27.7v.387L.04,28.33v.313s-.04.435-.04.445a.365.365,0,0,0,.047.065H.58l.622.03.149-.007.517-.023.635.027.095-.007h.075l.723-.02.659.027.248-.027.567-.031.194.031H6.423l.343-.028.152-.006.163.01.129-.01.092-.007.6.01,1.114,0,.228.013h.122l.713.021.184.013.567-.013.231.023h.146l.975-.023.112.02h.265l.214-.02h.957l.109-.017.2.017h.595l.248-.092.071-.163.088-.537,0-.109.014-.39L15,26.635l.02-.288.024-.8-.037-1.9,0-.214-.007-.52.017-.615s-.017-.686-.017-.7-.013-.353-.013-.353l.034-.476v-.445l-.014-.36.031-.547.02-.506-.044-.988.007-.486.01-.088.017-.251-.021-.435.011-.442-.014-.261-.01-.442.01-.333.017-.713.02-.309-.013-.975-.017-.374.034-.091,0-.116v-.078l0-.733,0-.109,0-.262.014-.142-.007-.282.037-.313-.016-.135v-.106l-.028-.652.028-.193V8.168l-.045-.36.01-1.355.017-.156V5.359s0-.859,0-.879-.031-.293-.031-.293l.017-1.029.028-.645V1.776h1.365l.58.017.89-.017h.133l.451.034h.252l.244-.01.388.01.706-.034h.7l.18.014.431-.014.149-.02.194-.017.282.013.2-.006.173,0,.618.027.435-.027.255.027h.326l.183-.027.241,0,1.2.054.037-.007.394-.044h.058l.279.027h1.09l.068.021.53.03.068.01.193-.006.187,0,.052-.126V.577L28.544.53Z" transform="translate(0 -0.377)"/>
<polygon points="22.792 13.556 21.733 13.556 21.719 13.834 21.726 14.119 21.763 14.929 21.712 15.411 21.733 16.309 21.777 17.083 21.763 17.397 21.726 18.149 21.682 18.412 21.733 18.843 21.697 19.471 21.711 20.541 21.69 20.997 21.631 22.048 21.631 22.508 21.631 23.008 21.726 24.903 21.704 25.247 21.682 25.86 21.675 26.831 21.631 27.298 21.631 27.693 21.631 28.73 21.777 28.806 22.077 28.806 22.259 28.806 22.5 28.773 22.792 28.751 23.084 28.806 23.194 28.642 23.194 28.291 23.128 27.408 23.135 27.07 23.128 26.035 23.194 25.232 23.194 24.757 23.194 23.815 23.194 23.005 23.194 22.552 23.194 21.216 23.194 20.201 23.194 19.347 23.128 18.573 23.172 18.368 23.172 17.813 23.216 17.346 23.259 16.857 23.223 16.411 23.172 15.221 23.223 14.9 23.223 14.469 23.259 14.345 23.259 13.914 23.259 13.71 23.186 13.556 22.792 13.556"/>
<polygon points="44.98 14.883 44.999 14.319 44.99 13.92 44.941 13.735 44.795 13.735 43.958 13.735 42.283 13.735 40.414 13.696 39.148 13.696 38.126 13.696 36.841 13.637 35.293 13.637 34.29 13.637 33.647 13.637 33.238 13.637 32.06 13.686 31.184 13.637 30.444 13.637 30.084 13.637 29.85 13.744 29.909 14.027 29.889 14.455 29.85 14.835 29.889 15.146 29.85 15.38 29.85 15.506 29.85 15.73 29.802 16.48 29.86 17.57 29.88 19.177 29.85 19.878 29.86 20.9 29.85 21.611 29.87 22.575 29.87 23.354 29.802 24.454 29.86 25.671 29.889 26.566 29.802 26.985 29.841 28.08 29.802 28.699 29.841 28.942 30.104 28.971 31.34 28.913 31.467 28.767 31.437 26.858 31.379 25.768 31.36 24.629 31.36 23.1 31.428 21.552 31.447 21.095 31.398 20.277 31.34 19.138 31.379 17.629 31.369 16.86 31.36 16.042 31.35 15.565 31.36 15.331 31.486 15.175 31.875 15.127 32.041 15.088 32.294 15.078 32.684 15.107 33.219 15.088 33.336 15.136 33.472 15.166 33.755 15.146 34.387 15.136 34.855 15.136 35.195 15.098 35.536 15.078 36.266 15.078 37.551 15.166 38.535 15.107 39.148 15.127 40.102 15.117 40.278 15.156 40.599 15.175 41.689 15.156 43.004 15.088 43.558 15.098 43.539 15.166 43.558 15.341 43.549 16.597 43.539 17.678 43.607 18.68 43.568 19.8 43.607 20.627 43.549 21.874 43.588 22.75 43.558 24.58 43.607 25.301 43.597 25.846 43.578 26.615 43.558 27.657 43.636 28.494 43.588 29.195 43.52 30.558 43.597 31.425 43.578 32.252 43.558 33.099 43.549 34.579 43.617 35.523 43.588 36.331 43.549 37.646 43.51 37.889 43.549 38.648 43.588 40.343 43.588 40.956 43.51 41.024 42.118 41.024 41.524 41.043 40.677 41.063 39.479 41.073 38.924 41.073 38.194 41.073 37.328 41.073 36.393 41.083 35.507 41.053 34.621 41.131 34.027 41.063 33.102 41.112 32.343 41.131 31.428 41.073 30.882 41.073 30.347 41.063 30.181 41.112 30.084 41.267 30.084 41.715 30.084 42.407 30.216 42.523 31.145 42.523 33.073 42.523 34.845 42.475 36.276 42.465 37.405 42.377 38.194 42.377 38.846 42.407 39.927 42.368 41.183 42.358 41.855 42.368 42.76 42.338 43.977 42.329 44.542 42.28 44.853 42.153 44.902 41.939 44.941 41.258 44.941 40.8 44.941 39.564 44.941 39.038 44.941 38.434 44.941 37.889 44.99 34.9 44.99 33.829 44.99 33.245 44.99 32.671 44.912 32.33 44.99 31.171 44.99 30.159 44.99 28.523 44.99 27.657 44.99 24.863 45.048 22.993 45.048 21.621 45.009 19.8 45.048 18.398 44.97 17.619 45.048 17.152 45.048 16.889 44.999 16.703 45.048 16.061 44.98 14.883"/>
<polygon points="64.685 13.802 64.101 13.812 63.731 13.861 63.731 13.968 63.799 14.766 63.799 15.886 63.75 17.365 63.799 17.677 63.75 17.774 63.75 18.076 63.75 19.799 63.75 21.698 63.702 23.178 63.702 24.658 63.702 27.082 63.702 27.247 63.556 27.296 63.273 27.296 62.728 27.296 62.241 27.296 61.54 27.296 60.908 27.247 59.817 27.296 59.058 27.296 58.172 27.296 56.75 27.296 55.086 27.296 52.671 27.296 51.951 27.296 51.795 27.14 51.775 26.498 51.795 25.251 51.824 23.859 51.844 23.178 51.902 21.873 51.824 20.598 51.766 19.332 51.824 18.397 51.756 17.502 51.756 16.431 51.697 14.824 51.697 14.153 51.697 13.802 51.62 13.695 50.899 13.734 50.315 13.734 50.315 14.406 50.315 15.37 50.364 15.866 50.373 16.888 50.315 18.66 50.393 19.624 50.432 20.773 50.403 22.233 50.383 22.886 50.364 23.392 50.393 24.073 50.315 28.494 50.315 28.776 50.568 28.805 52.077 28.805 53.148 28.805 55.232 28.805 57.383 28.747 60.859 28.698 61.881 28.698 63.04 28.698 64.043 28.698 64.646 28.698 64.987 28.601 65.026 28.308 64.987 27.734 64.987 27.101 65.006 25.534 65.026 23.937 65.045 22.954 65.065 21.766 65.026 20.14 65.036 18.543 65.045 17.998 65.026 17.667 65.074 17.112 65.045 16.363 65.133 15.019 65.133 14.094 65.133 13.88 65.065 13.792 64.685 13.802"/>
<polygon points="77.804 13.851 71.714 13.851 70.741 13.851 70.419 13.9 70.195 13.958 70.186 14.649 70.312 16.314 70.254 17.375 70.195 18.787 70.225 19.741 70.195 21.25 70.225 23.197 70.157 24.473 70.147 25.855 70.088 27.958 70.088 28.601 70.176 28.698 71.529 28.698 71.529 28.348 71.529 27.024 71.578 25.339 71.588 23.538 71.588 23.051 71.529 20.686 71.529 19.839 71.529 18.281 71.578 16.528 71.578 15.389 71.773 15.263 72.074 15.341 72.474 15.341 73.788 15.341 75.063 15.341 76.086 15.263 77.585 15.341 77.906 15.341 78.013 15.214 78.013 14.25 78.013 13.978 77.804 13.851"/>
</svg>