<?xml version="1.0" encoding="UTF-8"?>
<svg width="18px" height="19px" viewBox="0 0 18 19" version="1.1" xmlns="http://www.w3.org/2000/svg" xmlns:xlink="http://www.w3.org/1999/xlink">
    <!-- Generator: Sketch 50.2 (55047) - http://www.bohemiancoding.com/sketch -->
    <title>ikoner_20x20_cart</title>
    <desc>Created with Sketch.</desc>
    <defs/>
    <g id="Symbols" stroke="none" stroke-width="1" fill="none" fill-rule="evenodd">
        <g id="ikoner_20x20_cart" transform="translate(-1.000000, 0.000000)">
            <g transform="translate(1.500000, 1.300000)" id="Page-1">
                <g transform="translate(0.600000, -0.300000)">
                    <path d="M0.755003636,3.73994719 L0.000567272727,16.4630008 C-0.0102690909,16.6458243 0.13544,16.799989 0.31904,16.799989 L15.26344,16.799989 C15.4477309,16.799989 15.5936582,16.6447629 15.58184,16.4613537 L14.76104,3.73830013 C14.75024,3.57084915 14.6109309,3.4405119 14.4426764,3.4405119 L1.07347636,3.4405119 C0.904603636,3.4405119 0.764967273,3.57180078 0.755003636,3.73994719 L0.755003636,3.73994719 Z" id="Stroke-1" stroke="#666666"/>
                    <path d="M5.65896896,6.18947368 C5.65896896,6.67782996 5.2631147,7.07368421 4.77475843,7.07368421 C4.28640215,7.07368421 3.8905479,6.67782996 3.8905479,6.18947368 C3.8905479,5.70111741 4.28640215,5.30526316 4.77475843,5.30526316 C5.2631147,5.30526316 5.65896896,5.70111741 5.65896896,6.18947368" id="Fill-3" fill="#666666"/>
                    <path d="M11.5831363,6.18947368 C11.5831363,6.67782996 11.1872821,7.07368421 10.6989258,7.07368421 C10.2105695,7.07368421 9.81471525,6.67782996 9.81471525,6.18947368 C9.81471525,5.70111741 10.2105695,5.30526316 10.6989258,5.30526316 C11.1872821,5.30526316 11.5831363,5.70111741 11.5831363,6.18947368" id="Fill-5" fill="#666666"/>
                    <path d="M4.80944,6.18947368 L4.80944,3.85304984 C4.80944,3.85304984 4.76398545,0 7.78216727,0 C10.8003491,0 10.7367127,3.85304984 10.7367127,3.85304984 L10.7367127,6.18947368" id="Stroke-7" stroke="#666666"/>
                </g>
            </g>
        </g>
    </g>
</svg>